<?xml version="1.0" encoding="UTF-8"?>
<!DOCTYPE svg  PUBLIC '-//W3C//DTD SVG 1.1//EN'  'http://www.w3.org/Graphics/SVG/1.1/DTD/svg11.dtd'>
<!-- Handmade by Feyd_Ruin -->
<svg width="1259.5px" height="765.93px" enable-background="new 0 0 1259.519 765.93" version="1.1" viewBox="0 0 1259.519 765.93" xml:space="preserve" xmlns="http://www.w3.org/2000/svg">
<path d="m344.79 518.51h-239.72s67.884-118.37 53.399-230.73c-15.561-120.66-110.46-234.39-110.46-234.39l296.79-1.503v466.63z" clip-rule="evenodd" fill="#A9A49F" fill-rule="evenodd"/>
<path d="m631.62 762.93l-525.82-244.42h45.376l480.44 126.04v118.38z" clip-rule="evenodd" fill="#9F9A95" fill-rule="evenodd"/>
<path d="m631.62 762.93l-0.18-121.73 390.84-128.6 114.43-0.982-505.09 251.32z" clip-rule="evenodd" fill="#A9A49F" fill-rule="evenodd"/>
<path d="m1136.7 511.61l-160.61 48.214 8.295-505.49h219s-91.787 86.451-108.65 204.84c-14.297 100.3 41.958 252.44 41.958 252.44z" clip-rule="evenodd" fill="#DCDCDB" fill-rule="evenodd"/>
<path d="m965.06 157.94l-668.46 10.283-248.6-114.83s288.84-48.532 577.7-48.532c288.85 0 577.7 48.532 577.7 48.532l-238.34 104.55z" clip-rule="evenodd" fill="#EBEAEA" fill-rule="evenodd"/>
<path d="m1113.5 518.51s-481.12 185.34-481.85 185.34c-0.735 0-482.96-185.34-482.96-185.34-0.948 2.266 49.191-107.15 36.127-229.27-11.537-107.87-85.618-212.22-85.618-212.22s268.88-39.439 533.38-39.439c260.05 0 517.92 38.474 517.92 38.474s-70.463 117.12-79.972 230.84c-8.976 107.32 42.978 211.61 42.978 211.61z" clip-rule="evenodd" fill="#BEBDC2" fill-rule="evenodd"/>
<path d="m1051.8 511.48s-419.7 129.71-420.33 129.71-421.3-129.71-421.3-129.71 36.174-101.23 25.596-200c-10.069-94.099-66.902-185.97-66.902-185.97s232.69-28.827 463.42-28.827c226.85 0 451.8 28.827 451.8 28.827s-53.186 102.16-61.475 201.37c-7.832 93.612 29.197 184.6 29.197 184.6z" clip-rule="evenodd" fill="#231F20" fill-rule="evenodd"/>
</svg>
