<?xml version="1.0" encoding="UTF-8"?>
<!DOCTYPE svg  PUBLIC '-//W3C//DTD SVG 1.1//EN'  'http://www.w3.org/Graphics/SVG/1.1/DTD/svg11.dtd'>
<!-- Handmade by Feyd_Ruin -->
<svg width="1259.5px" height="765.93px" enable-background="new 0 0 1259.519 765.93" version="1.1" viewBox="0 0 1259.519 765.93" xml:space="preserve" xmlns="http://www.w3.org/2000/svg">
<path d="m340.64 686.21h-302.43s103.23-197.91 88.464-336.14c-15.857-148.45-93.088-288.37-93.088-288.37l302.43-1.849 4.624 626.36z" clip-rule="evenodd" fill="#A9A49F" fill-rule="evenodd"/>
<path d="m908.16 59.852l302.77 1.461s-77.58 140.31-93.436 288.76c-14.767 138.23 88.463 336.14 88.463 336.14h-302.43l4.63-626.36z" clip-rule="evenodd" fill="#A9A49F" fill-rule="evenodd"/>
<path d="m968.06 167.85l-681.16 10.479-253.32-116.63s294.34-49.833 588.68-49.833c294.34 0 588.67 49.454 588.67 49.454l-242.87 106.53z" clip-rule="evenodd" fill="#EBEAEA" fill-rule="evenodd"/>
<path d="m1206 686.21s-300.01 67.2-594.35 67.2c-294.34 0-573.4-67.206-573.4-67.206l238.05-118.02 681.16 10.479 248.54 107.55z" clip-rule="evenodd" fill="#58595B" fill-rule="evenodd"/>
<path d="m87.718 86.631s265.13-40.748 523.58-40.748c259.26 0 541.98 40.718 541.98 40.718s-94.124 142.62-94.124 277.08c0 138.92 94.124 299.77 94.124 299.77s-282.71 57.935-541.98 57.935c-258.46 0-529.28-56.898-529.28-56.898s80.224-155.78 80.224-291.68c0-137.53-74.522-286.18-74.522-286.18z" clip-rule="evenodd" fill="#BEBDC2" fill-rule="evenodd"/>
<path d="m149.49 122.42s233.74-36.357 466.74-36.357c233.74 0 466.75 36.357 466.75 36.357s-64.098 125.51-64.098 253.07c0 131.78 64.098 265.76 64.098 265.76s-234.1 44.965-467.84 44.965c-233 0-465.65-44.965-465.65-44.965s60.807-128.18 60.807-257.1c-1e-3 -130.47-60.808-261.72-60.808-261.72z" clip-rule="evenodd" fill="#231F20" fill-rule="evenodd"/>
</svg>
