<?xml version="1.0" encoding="UTF-8"?>
<!DOCTYPE svg  PUBLIC '-//W3C//DTD SVG 1.1//EN'  'http://www.w3.org/Graphics/SVG/1.1/DTD/svg11.dtd'>
<!-- Handmade by Feyd_Ruin -->
<svg width="1259.5px" height="765.93px" enable-background="new 0 0 1259.519 765.93" version="1.1" viewBox="0 0 1259.519 765.93" xml:space="preserve" xmlns="http://www.w3.org/2000/svg">
<path d="m929.55 247.62h240.9s-68.217 118.95-53.654 231.86c15.637 121.25 111 235.54 111 235.54l-298.25 1.51v-468.92z" clip-rule="evenodd" fill="#DCDCDB" fill-rule="evenodd"/>
<path d="M641.312,2l528.393,245.617h-45.6L641.312,120.963V2z" clip-rule="evenodd" fill="#EBEAEA" fill-rule="evenodd"/>
<path d="m641.31 2l0.174 122.33-392.75 129.24-115 0.99 507.58-252.55z" clip-rule="evenodd" fill="#D2D2D2" fill-rule="evenodd"/>
<path d="m133.74 254.56l161.39-48.454-8.33 507.97h-220.08s92.237-86.875 109.18-205.84c14.365-100.79-42.168-253.68-42.168-253.68z" clip-rule="evenodd" fill="#A9A49F" fill-rule="evenodd"/>
<path d="m306.23 609.96l671.74-10.332 249.82 115.4s-290.27 48.77-580.54 48.77-580.54-48.77-580.54-48.77l239.51-105.06z" clip-rule="evenodd" fill="#9F9A95" fill-rule="evenodd"/>
<path d="m157.1 247.62s483.48-186.25 484.22-186.25c0.732 0 485.33 186.25 485.33 186.25 0.946-2.277-49.439 107.67-36.312 230.4 11.601 108.4 86.046 213.26 86.046 213.26s-270.2 39.633-536 39.633c-261.32 0-520.46-38.663-520.46-38.663s70.808-117.69 80.363-231.97c9.018-107.84-43.187-212.65-43.187-212.65z" clip-rule="evenodd" fill="#BEBDC2" fill-rule="evenodd"/>
<path d="m219.09 254.68s421.76-130.35 422.39-130.35c0.646 0 423.38 130.35 423.38 130.35s-36.352 101.72-25.727 200.98c10.119 94.561 67.236 186.88 67.236 186.88s-233.84 28.969-465.69 28.969c-227.96 0-454.02-28.969-454.02-28.969s53.443-102.66 61.776-202.36c7.868-94.075-29.346-185.5-29.346-185.5z" clip-rule="evenodd" fill="#231F20" fill-rule="evenodd"/>
</svg>
